<mxfile host="65bd71144e">
    <diagram id="t7cqJlzM_KAU25U6iIUh" name="Page-1">
        <mxGraphModel dx="2290" dy="1748" grid="1" gridSize="10" guides="1" tooltips="1" connect="1" arrows="1" fold="1" page="1" pageScale="1" pageWidth="850" pageHeight="1100" math="0" shadow="0">
            <root>
                <mxCell id="0"/>
                <mxCell id="1" parent="0"/>
                <mxCell id="27" value="envirement" style="shape=note;whiteSpace=wrap;html=1;backgroundOutline=1;darkOpacity=0.05;rounded=0;shadow=0;glass=0;sketch=0;size=15;" vertex="1" parent="1">
                    <mxGeometry x="-1030" y="-370" width="50" height="60" as="geometry"/>
                </mxCell>
                <mxCell id="15" value="Start of minishell" style="rounded=0;whiteSpace=wrap;html=1;shadow=0;glass=0;sketch=0;" vertex="1" parent="1">
                    <mxGeometry x="-650" y="-750" width="150" height="70" as="geometry"/>
                </mxCell>
                <mxCell id="16" value="setup" style="rounded=1;whiteSpace=wrap;html=1;shadow=0;glass=0;sketch=0;fillColor=#f5f5f5;fontColor=#333333;strokeColor=#666666;" vertex="1" parent="1">
                    <mxGeometry x="-635" y="-590" width="120" height="60" as="geometry"/>
                </mxCell>
                <mxCell id="17" value="" style="endArrow=classic;html=1;entryX=0.5;entryY=0;entryDx=0;entryDy=0;" edge="1" parent="1" source="15" target="16">
                    <mxGeometry width="50" height="50" relative="1" as="geometry">
                        <mxPoint x="-570" y="-520" as="sourcePoint"/>
                        <mxPoint x="-520" y="-570" as="targetPoint"/>
                    </mxGeometry>
                </mxCell>
                <mxCell id="18" value="creating Envirement" style="rounded=1;whiteSpace=wrap;html=1;shadow=0;glass=0;sketch=0;fillColor=#f5f5f5;fontColor=#333333;strokeColor=#666666;" vertex="1" parent="1">
                    <mxGeometry x="-780" y="-470" width="120" height="60" as="geometry"/>
                </mxCell>
                <mxCell id="19" value="creating signal Handler" style="rounded=1;whiteSpace=wrap;html=1;shadow=0;glass=0;sketch=0;fillColor=#f5f5f5;fontColor=#333333;strokeColor=#666666;" vertex="1" parent="1">
                    <mxGeometry x="-500" y="-470" width="120" height="60" as="geometry"/>
                </mxCell>
                <mxCell id="20" value="" style="endArrow=classic;html=1;exitX=1;exitY=0.5;exitDx=0;exitDy=0;entryX=0.5;entryY=0;entryDx=0;entryDy=0;" edge="1" parent="1" source="16" target="19">
                    <mxGeometry width="50" height="50" relative="1" as="geometry">
                        <mxPoint x="-570" y="-460" as="sourcePoint"/>
                        <mxPoint x="-520" y="-510" as="targetPoint"/>
                    </mxGeometry>
                </mxCell>
                <mxCell id="21" value="" style="endArrow=classic;html=1;entryX=0.5;entryY=0;entryDx=0;entryDy=0;exitX=0;exitY=0.5;exitDx=0;exitDy=0;" edge="1" parent="1" source="16" target="18">
                    <mxGeometry width="50" height="50" relative="1" as="geometry">
                        <mxPoint x="-720" y="-480" as="sourcePoint"/>
                        <mxPoint x="-670" y="-530" as="targetPoint"/>
                    </mxGeometry>
                </mxCell>
                <mxCell id="22" value="the Current envirement" style="shape=parallelogram;perimeter=parallelogramPerimeter;whiteSpace=wrap;html=1;fixedSize=1;rounded=0;shadow=0;glass=0;sketch=0;fillColor=#d5e8d4;strokeColor=#82b366;" vertex="1" parent="1">
                    <mxGeometry x="-950" y="-470" width="120" height="60" as="geometry"/>
                </mxCell>
                <mxCell id="23" value="" style="endArrow=classic;html=1;entryX=0;entryY=0.5;entryDx=0;entryDy=0;exitX=1;exitY=0.5;exitDx=0;exitDy=0;" edge="1" parent="1" source="22" target="18">
                    <mxGeometry width="50" height="50" relative="1" as="geometry">
                        <mxPoint x="-850" y="-400" as="sourcePoint"/>
                        <mxPoint x="-800" y="-450" as="targetPoint"/>
                    </mxGeometry>
                </mxCell>
                <mxCell id="24" value="save the his own envirement in a file" style="shape=parallelogram;perimeter=parallelogramPerimeter;whiteSpace=wrap;html=1;fixedSize=1;rounded=0;shadow=0;glass=0;sketch=0;fillColor=#e1d5e7;strokeColor=#9673a6;" vertex="1" parent="1">
                    <mxGeometry x="-960" y="-370" width="120" height="60" as="geometry"/>
                </mxCell>
                <mxCell id="25" value="" style="endArrow=classic;html=1;" edge="1" parent="1" source="18">
                    <mxGeometry width="50" height="50" relative="1" as="geometry">
                        <mxPoint x="-720" y="-360" as="sourcePoint"/>
                        <mxPoint x="-720" y="-339.28932188134524" as="targetPoint"/>
                    </mxGeometry>
                </mxCell>
                <mxCell id="26" value="" style="endArrow=classic;html=1;entryX=1;entryY=0.5;entryDx=0;entryDy=0;" edge="1" parent="1" target="24">
                    <mxGeometry width="50" height="50" relative="1" as="geometry">
                        <mxPoint x="-720" y="-340" as="sourcePoint"/>
                        <mxPoint x="-710" y="-340" as="targetPoint"/>
                    </mxGeometry>
                </mxCell>
                <mxCell id="28" value="" style="endArrow=classic;html=1;" edge="1" parent="1">
                    <mxGeometry width="50" height="50" relative="1" as="geometry">
                        <mxPoint x="-720" y="-340" as="sourcePoint"/>
                        <mxPoint x="-630" y="-340" as="targetPoint"/>
                    </mxGeometry>
                </mxCell>
                <mxCell id="30" value="starting readline loop" style="rounded=0;whiteSpace=wrap;html=1;shadow=0;glass=0;sketch=0;" vertex="1" parent="1">
                    <mxGeometry x="-630" y="-370" width="120" height="60" as="geometry"/>
                </mxCell>
                <mxCell id="31" value="" style="endArrow=classic;html=1;entryX=1;entryY=0.5;entryDx=0;entryDy=0;" edge="1" parent="1" target="30">
                    <mxGeometry width="50" height="50" relative="1" as="geometry">
                        <mxPoint x="-440" y="-340" as="sourcePoint"/>
                        <mxPoint x="-440" y="-420" as="targetPoint"/>
                    </mxGeometry>
                </mxCell>
                <mxCell id="32" value="" style="endArrow=classic;html=1;exitX=0.5;exitY=1;exitDx=0;exitDy=0;" edge="1" parent="1" source="19">
                    <mxGeometry width="50" height="50" relative="1" as="geometry">
                        <mxPoint x="-520" y="-250" as="sourcePoint"/>
                        <mxPoint x="-440" y="-340" as="targetPoint"/>
                    </mxGeometry>
                </mxCell>
                <mxCell id="33" value="The Signals" style="swimlane;fontStyle=0;childLayout=stackLayout;horizontal=1;startSize=30;horizontalStack=0;resizeParent=1;resizeParentMax=0;resizeLast=0;collapsible=1;marginBottom=0;rounded=0;shadow=0;glass=0;sketch=0;fillColor=#fff2cc;strokeColor=#d6b656;" vertex="1" parent="1">
                    <mxGeometry x="-340" y="-500" width="140" height="120" as="geometry"/>
                </mxCell>
                <mxCell id="34" value="cntrl c" style="text;strokeColor=#d79b00;fillColor=#ffe6cc;align=left;verticalAlign=middle;spacingLeft=4;spacingRight=4;overflow=hidden;points=[[0,0.5],[1,0.5]];portConstraint=eastwest;rotatable=0;rounded=0;shadow=0;glass=0;sketch=0;" vertex="1" parent="33">
                    <mxGeometry y="30" width="140" height="30" as="geometry"/>
                </mxCell>
                <mxCell id="35" value="cntrl d" style="text;strokeColor=#d6b656;fillColor=#fff2cc;align=left;verticalAlign=middle;spacingLeft=4;spacingRight=4;overflow=hidden;points=[[0,0.5],[1,0.5]];portConstraint=eastwest;rotatable=0;rounded=0;shadow=0;glass=0;sketch=0;" vertex="1" parent="33">
                    <mxGeometry y="60" width="140" height="30" as="geometry"/>
                </mxCell>
                <mxCell id="36" value="cntrl \" style="text;strokeColor=#d79b00;fillColor=#ffe6cc;align=left;verticalAlign=middle;spacingLeft=4;spacingRight=4;overflow=hidden;points=[[0,0.5],[1,0.5]];portConstraint=eastwest;rotatable=0;rounded=0;shadow=0;glass=0;sketch=0;" vertex="1" parent="33">
                    <mxGeometry y="90" width="140" height="30" as="geometry"/>
                </mxCell>
                <mxCell id="37" value="" style="shape=flexArrow;endArrow=classic;html=1;exitX=1;exitY=0.5;exitDx=0;exitDy=0;entryX=-0.014;entryY=-0.033;entryDx=0;entryDy=0;entryPerimeter=0;" edge="1" parent="1" source="19" target="35">
                    <mxGeometry width="50" height="50" relative="1" as="geometry">
                        <mxPoint x="-380" y="-410" as="sourcePoint"/>
                        <mxPoint x="-330" y="-460" as="targetPoint"/>
                    </mxGeometry>
                </mxCell>
                <mxCell id="38" value="" style="endArrow=classic;html=1;exitX=1;exitY=0.5;exitDx=0;exitDy=0;entryX=0;entryY=0.5;entryDx=0;entryDy=0;" edge="1" parent="1" source="34" target="39">
                    <mxGeometry width="50" height="50" relative="1" as="geometry">
                        <mxPoint x="-170" y="-440" as="sourcePoint"/>
                        <mxPoint x="-120" y="-490" as="targetPoint"/>
                    </mxGeometry>
                </mxCell>
                <mxCell id="39" value="prints new line" style="text;html=1;align=center;verticalAlign=middle;whiteSpace=wrap;rounded=0;shadow=0;glass=0;sketch=0;" vertex="1" parent="1">
                    <mxGeometry x="-100" y="-510" width="60" height="30" as="geometry"/>
                </mxCell>
                <mxCell id="43" value="" style="endArrow=classic;html=1;exitX=1;exitY=0.5;exitDx=0;exitDy=0;" edge="1" parent="1" source="35">
                    <mxGeometry width="50" height="50" relative="1" as="geometry">
                        <mxPoint x="-160" y="-400" as="sourcePoint"/>
                        <mxPoint x="-120" y="-430" as="targetPoint"/>
                    </mxGeometry>
                </mxCell>
                <mxCell id="44" value="exit the terminal" style="text;html=1;align=center;verticalAlign=middle;whiteSpace=wrap;rounded=0;shadow=0;glass=0;sketch=0;gradientDirection=west;" vertex="1" parent="1">
                    <mxGeometry x="-120" y="-450" width="60" height="30" as="geometry"/>
                </mxCell>
                <mxCell id="45" value="" style="endArrow=classic;html=1;exitX=0.993;exitY=0.233;exitDx=0;exitDy=0;exitPerimeter=0;" edge="1" parent="1" source="36">
                    <mxGeometry width="50" height="50" relative="1" as="geometry">
                        <mxPoint x="-170" y="-360" as="sourcePoint"/>
                        <mxPoint x="-110" y="-370" as="targetPoint"/>
                    </mxGeometry>
                </mxCell>
                <mxCell id="46" value="does nothing" style="text;html=1;align=center;verticalAlign=middle;whiteSpace=wrap;rounded=0;shadow=0;glass=0;sketch=0;" vertex="1" parent="1">
                    <mxGeometry x="-110" y="-390" width="60" height="30" as="geometry"/>
                </mxCell>
                <mxCell id="47" value="" style="shape=flexArrow;endArrow=classic;html=1;exitX=0;exitY=0.25;exitDx=0;exitDy=0;" edge="1" parent="1" source="24" target="27">
                    <mxGeometry width="50" height="50" relative="1" as="geometry">
                        <mxPoint x="-800" y="-110" as="sourcePoint"/>
                        <mxPoint x="-750" y="-160" as="targetPoint"/>
                    </mxGeometry>
                </mxCell>
                <mxCell id="50" value="" style="endArrow=classic;html=1;exitX=0.5;exitY=1;exitDx=0;exitDy=0;" edge="1" parent="1" source="30">
                    <mxGeometry width="50" height="50" relative="1" as="geometry">
                        <mxPoint x="-490" y="-170" as="sourcePoint"/>
                        <mxPoint x="-570" y="-250" as="targetPoint"/>
                    </mxGeometry>
                </mxCell>
                <mxCell id="51" value="deconstructing the input" style="rounded=0;whiteSpace=wrap;html=1;shadow=0;glass=0;sketch=0;" vertex="1" parent="1">
                    <mxGeometry x="-740" y="-20" width="120" height="60" as="geometry"/>
                </mxCell>
                <mxCell id="52" value="" style="endArrow=classic;html=1;entryX=0.5;entryY=0;entryDx=0;entryDy=0;exitX=0.5;exitY=1;exitDx=0;exitDy=0;" edge="1" parent="1" target="51">
                    <mxGeometry width="50" height="50" relative="1" as="geometry">
                        <mxPoint x="-680" y="-100" as="sourcePoint"/>
                        <mxPoint x="-650" y="-100" as="targetPoint"/>
                    </mxGeometry>
                </mxCell>
                <mxCell id="54" value="add line to readline&lt;br&gt;history" style="rounded=1;whiteSpace=wrap;html=1;shadow=0;glass=0;sketch=0;fillColor=#f5f5f5;fontColor=#333333;strokeColor=#666666;" vertex="1" parent="1">
                    <mxGeometry x="-561" y="-140" width="120" height="60" as="geometry"/>
                </mxCell>
                <mxCell id="55" value="&lt;meta charset=&quot;utf-8&quot;&gt;&lt;span style=&quot;color: rgb(51, 51, 51); font-family: helvetica; font-size: 12px; font-style: normal; font-weight: 400; letter-spacing: normal; text-align: center; text-indent: 0px; text-transform: none; word-spacing: 0px; background-color: rgb(248, 249, 250); display: inline; float: none;&quot;&gt;getting a string from&amp;nbsp;&lt;/span&gt;&lt;br style=&quot;color: rgb(51, 51, 51); font-family: helvetica; font-size: 12px; font-style: normal; font-weight: 400; letter-spacing: normal; text-align: center; text-indent: 0px; text-transform: none; word-spacing: 0px; background-color: rgb(248, 249, 250);&quot;&gt;&lt;span style=&quot;color: rgb(51, 51, 51); font-family: helvetica; font-size: 12px; font-style: normal; font-weight: 400; letter-spacing: normal; text-align: center; text-indent: 0px; text-transform: none; word-spacing: 0px; background-color: rgb(248, 249, 250); display: inline; float: none;&quot;&gt;readline&lt;/span&gt;" style="shape=parallelogram;perimeter=parallelogramPerimeter;whiteSpace=wrap;html=1;fixedSize=1;rounded=0;shadow=0;glass=0;sketch=0;fillColor=#d5e8d4;strokeColor=#82b366;" vertex="1" parent="1">
                    <mxGeometry x="-745" y="-160" width="120" height="60" as="geometry"/>
                </mxCell>
                <mxCell id="56" value="using the&lt;br&gt;readline&lt;br&gt;history?" style="rhombus;whiteSpace=wrap;html=1;rounded=0;shadow=0;glass=0;sketch=0;fillColor=#fff2cc;strokeColor=#d6b656;" vertex="1" parent="1">
                    <mxGeometry x="-610" y="-250" width="80" height="80" as="geometry"/>
                </mxCell>
                <mxCell id="58" value="no" style="shape=flexArrow;endArrow=classic;html=1;exitX=0;exitY=0.5;exitDx=0;exitDy=0;" edge="1" parent="1" source="56">
                    <mxGeometry width="50" height="50" relative="1" as="geometry">
                        <mxPoint x="-530" y="-90" as="sourcePoint"/>
                        <mxPoint x="-680" y="-210" as="targetPoint"/>
                    </mxGeometry>
                </mxCell>
                <mxCell id="59" value="yes" style="shape=flexArrow;endArrow=classic;html=1;exitX=1;exitY=0.5;exitDx=0;exitDy=0;" edge="1" parent="1" source="56">
                    <mxGeometry width="50" height="50" relative="1" as="geometry">
                        <mxPoint x="-530" y="-180" as="sourcePoint"/>
                        <mxPoint x="-450" y="-210" as="targetPoint"/>
                    </mxGeometry>
                </mxCell>
                <mxCell id="60" value="" style="endArrow=classic;html=1;entryX=0.5;entryY=0;entryDx=0;entryDy=0;" edge="1" parent="1" target="55">
                    <mxGeometry width="50" height="50" relative="1" as="geometry">
                        <mxPoint x="-680" y="-210" as="sourcePoint"/>
                        <mxPoint x="-680" y="-190" as="targetPoint"/>
                    </mxGeometry>
                </mxCell>
                <mxCell id="61" value="updating the&amp;nbsp;&lt;br&gt;termainl input" style="shape=parallelogram;perimeter=parallelogramPerimeter;whiteSpace=wrap;html=1;fixedSize=1;rounded=0;shadow=0;glass=0;sketch=0;fillColor=#e1d5e7;strokeColor=#9673a6;" vertex="1" parent="1">
                    <mxGeometry x="-450" y="-240" width="120" height="60" as="geometry"/>
                </mxCell>
                <mxCell id="63" value="" style="curved=1;endArrow=classic;html=1;exitX=0.5;exitY=0;exitDx=0;exitDy=0;" edge="1" parent="1" source="61" target="56">
                    <mxGeometry width="50" height="50" relative="1" as="geometry">
                        <mxPoint x="-410" y="-230" as="sourcePoint"/>
                        <mxPoint x="-360" y="-280" as="targetPoint"/>
                        <Array as="points">
                            <mxPoint x="-400" y="-270"/>
                            <mxPoint x="-520" y="-290"/>
                        </Array>
                    </mxGeometry>
                </mxCell>
                <mxCell id="65" value="" style="endArrow=classic;html=1;exitX=1;exitY=0.5;exitDx=0;exitDy=0;entryX=0;entryY=0.5;entryDx=0;entryDy=0;" edge="1" parent="1" source="55" target="54">
                    <mxGeometry width="50" height="50" relative="1" as="geometry">
                        <mxPoint x="-640" y="-90" as="sourcePoint"/>
                        <mxPoint x="-590" y="-140" as="targetPoint"/>
                    </mxGeometry>
                </mxCell>
                <mxCell id="66" value="readline historybuffer" style="ellipse;whiteSpace=wrap;html=1;rounded=0;shadow=0;glass=0;sketch=0;gradientDirection=west;fillColor=#0050ef;fontColor=#ffffff;strokeColor=#001DBC;" vertex="1" parent="1">
                    <mxGeometry x="-320" y="-140" width="120" height="80" as="geometry"/>
                </mxCell>
                <mxCell id="67" value="" style="shape=flexArrow;endArrow=classic;startArrow=classic;html=1;exitX=0.85;exitY=1.033;exitDx=0;exitDy=0;exitPerimeter=0;" edge="1" parent="1" source="61" target="66">
                    <mxGeometry width="100" height="100" relative="1" as="geometry">
                        <mxPoint x="-430" y="-60" as="sourcePoint"/>
                        <mxPoint x="-330" y="-160" as="targetPoint"/>
                    </mxGeometry>
                </mxCell>
                <mxCell id="68" value="" style="shape=flexArrow;endArrow=classic;html=1;entryX=0;entryY=0.5;entryDx=0;entryDy=0;exitX=1;exitY=0.5;exitDx=0;exitDy=0;" edge="1" parent="1" source="54" target="66">
                    <mxGeometry width="50" height="50" relative="1" as="geometry">
                        <mxPoint x="-450" y="-90" as="sourcePoint"/>
                        <mxPoint x="-400" y="-140" as="targetPoint"/>
                    </mxGeometry>
                </mxCell>
                <mxCell id="69" value="" style="shape=flexArrow;endArrow=classic;html=1;" edge="1" parent="1">
                    <mxGeometry width="50" height="50" relative="1" as="geometry">
                        <mxPoint x="-30" y="-490" as="sourcePoint"/>
                        <mxPoint x="30" y="-500" as="targetPoint"/>
                    </mxGeometry>
                </mxCell>
                <mxCell id="70" value="NOT SURE&amp;nbsp;&lt;br&gt;IF NEEDED&lt;br&gt;killing the current running process" style="text;html=1;strokeColor=none;fillColor=none;align=center;verticalAlign=middle;whiteSpace=wrap;rounded=0;shadow=0;glass=0;sketch=0;" vertex="1" parent="1">
                    <mxGeometry x="50" y="-520" width="60" height="30" as="geometry"/>
                </mxCell>
                <mxCell id="71" value="between pipes&lt;br&gt;and &amp;amp;&amp;amp;&amp;nbsp; and ||&lt;br&gt;&amp;nbsp;and input/output redirection" style="rounded=1;whiteSpace=wrap;html=1;shadow=0;glass=0;sketch=0;gradientDirection=west;fillColor=#f5f5f5;fontColor=#333333;strokeColor=#666666;" vertex="1" parent="1">
                    <mxGeometry x="-740" y="130" width="120" height="60" as="geometry"/>
                </mxCell>
                <mxCell id="72" value="" style="endArrow=classic;html=1;exitX=0.5;exitY=1;exitDx=0;exitDy=0;" edge="1" parent="1" source="51" target="71">
                    <mxGeometry width="50" height="50" relative="1" as="geometry">
                        <mxPoint x="-690" y="80" as="sourcePoint"/>
                        <mxPoint x="-640" y="30" as="targetPoint"/>
                    </mxGeometry>
                </mxCell>
                <mxCell id="73" value="NOTE&lt;br&gt;need to save the input/output for pipes" style="shape=callout;whiteSpace=wrap;html=1;perimeter=calloutPerimeter;rounded=0;shadow=0;glass=0;sketch=0;gradientDirection=west;position2=0;fillColor=#b1ddf0;strokeColor=#10739e;" vertex="1" parent="1">
                    <mxGeometry x="-620" y="80" width="120" height="80" as="geometry"/>
                </mxCell>
                <mxCell id="77" value="between builtins/ executable with flags and arguments" style="rounded=1;whiteSpace=wrap;html=1;shadow=0;glass=0;sketch=0;fillColor=#f5f5f5;fontColor=#333333;strokeColor=#666666;" vertex="1" parent="1">
                    <mxGeometry x="-740" y="240" width="120" height="70" as="geometry"/>
                </mxCell>
                <mxCell id="78" value="" style="endArrow=classic;html=1;entryX=0.48;entryY=-0.091;entryDx=0;entryDy=0;entryPerimeter=0;exitX=0.456;exitY=1.012;exitDx=0;exitDy=0;exitPerimeter=0;" edge="1" parent="1" source="71" target="77">
                    <mxGeometry width="50" height="50" relative="1" as="geometry">
                        <mxPoint x="-710" y="210" as="sourcePoint"/>
                        <mxPoint x="-650" y="190" as="targetPoint"/>
                    </mxGeometry>
                </mxCell>
                <mxCell id="-gghozSChk5Wze0QSNFC-79" value="" style="endArrow=classic;html=1;entryX=0.5;entryY=0;entryDx=0;entryDy=0;exitX=0.5;exitY=1;exitDx=0;exitDy=0;" edge="1" parent="1" source="77">
                    <mxGeometry width="50" height="50" relative="1" as="geometry">
                        <mxPoint x="-700" y="350" as="sourcePoint"/>
                        <mxPoint x="-680" y="340" as="targetPoint"/>
                    </mxGeometry>
                </mxCell>
                <mxCell id="-gghozSChk5Wze0QSNFC-80" value="Tokennizer/ lexer" style="text;html=1;strokeColor=none;fillColor=none;align=center;verticalAlign=middle;whiteSpace=wrap;rounded=0;shadow=0;glass=0;sketch=0;" vertex="1" parent="1">
                    <mxGeometry x="-850" y="200" width="60" height="30" as="geometry"/>
                </mxCell>
                <mxCell id="-gghozSChk5Wze0QSNFC-81" value="" style="endArrow=none;dashed=1;html=1;dashPattern=1 3;strokeWidth=2;" edge="1" parent="1">
                    <mxGeometry width="50" height="50" relative="1" as="geometry">
                        <mxPoint x="-780" y="210" as="sourcePoint"/>
                        <mxPoint x="-730" y="160" as="targetPoint"/>
                    </mxGeometry>
                </mxCell>
                <mxCell id="-gghozSChk5Wze0QSNFC-82" value="" style="endArrow=none;dashed=1;html=1;dashPattern=1 3;strokeWidth=2;entryX=0;entryY=0.5;entryDx=0;entryDy=0;exitX=1;exitY=0.5;exitDx=0;exitDy=0;" edge="1" parent="1" source="-gghozSChk5Wze0QSNFC-80" target="77">
                    <mxGeometry width="50" height="50" relative="1" as="geometry">
                        <mxPoint x="-830" y="340" as="sourcePoint"/>
                        <mxPoint x="-780" y="290" as="targetPoint"/>
                    </mxGeometry>
                </mxCell>
                <mxCell id="-gghozSChk5Wze0QSNFC-83" value="replace the $ vars if outside of ' single qutaition marks" style="rounded=1;whiteSpace=wrap;html=1;shadow=0;glass=0;sketch=0;fillColor=#f5f5f5;fontColor=#333333;strokeColor=#666666;" vertex="1" parent="1">
                    <mxGeometry x="-740" y="340" width="120" height="60" as="geometry"/>
                </mxCell>
                <mxCell id="-gghozSChk5Wze0QSNFC-84" value="Expander" style="text;html=1;strokeColor=none;fillColor=none;align=center;verticalAlign=middle;whiteSpace=wrap;rounded=0;shadow=0;glass=0;sketch=0;" vertex="1" parent="1">
                    <mxGeometry x="-850" y="355" width="60" height="30" as="geometry"/>
                </mxCell>
                <mxCell id="-gghozSChk5Wze0QSNFC-85" value="" style="endArrow=none;dashed=1;html=1;dashPattern=1 3;strokeWidth=2;entryX=-0.044;entryY=0.512;entryDx=0;entryDy=0;entryPerimeter=0;exitX=1;exitY=0.75;exitDx=0;exitDy=0;" edge="1" parent="1" source="-gghozSChk5Wze0QSNFC-84" target="-gghozSChk5Wze0QSNFC-83">
                    <mxGeometry width="50" height="50" relative="1" as="geometry">
                        <mxPoint x="-790" y="400" as="sourcePoint"/>
                        <mxPoint x="-740" y="350" as="targetPoint"/>
                    </mxGeometry>
                </mxCell>
                <mxCell id="X_gGsKT-xEyEadyAPWAb-79" value="NOTE&lt;br&gt;if the variable is not defined then its equal to empty string" style="shape=callout;whiteSpace=wrap;html=1;perimeter=calloutPerimeter;rounded=0;shadow=0;glass=0;sketch=0;gradientDirection=west;fillColor=#b1ddf0;strokeColor=#10739e;position2=0;" vertex="1" parent="1">
                    <mxGeometry x="-615" y="240" width="105" height="130" as="geometry"/>
                </mxCell>
                <mxCell id="X_gGsKT-xEyEadyAPWAb-81" value="execution" style="rounded=1;whiteSpace=wrap;html=1;shadow=0;glass=0;sketch=0;fillColor=#f5f5f5;fontColor=#333333;strokeColor=#666666;" vertex="1" parent="1">
                    <mxGeometry x="-735" y="490" width="120" height="60" as="geometry"/>
                </mxCell>
                <mxCell id="X_gGsKT-xEyEadyAPWAb-82" value="" style="endArrow=classic;html=1;entryX=0.5;entryY=0;entryDx=0;entryDy=0;exitX=0.5;exitY=1;exitDx=0;exitDy=0;" edge="1" parent="1" source="-gghozSChk5Wze0QSNFC-83" target="X_gGsKT-xEyEadyAPWAb-81">
                    <mxGeometry width="50" height="50" relative="1" as="geometry">
                        <mxPoint x="-710" y="470" as="sourcePoint"/>
                        <mxPoint x="-660" y="420" as="targetPoint"/>
                    </mxGeometry>
                </mxCell>
                <mxCell id="X_gGsKT-xEyEadyAPWAb-83" value="" style="curved=1;endArrow=classic;html=1;exitX=0;exitY=0.5;exitDx=0;exitDy=0;" edge="1" parent="1" source="X_gGsKT-xEyEadyAPWAb-81">
                    <mxGeometry width="50" height="50" relative="1" as="geometry">
                        <mxPoint x="-610" y="370" as="sourcePoint"/>
                        <mxPoint x="-580" y="-280" as="targetPoint"/>
                        <Array as="points">
                            <mxPoint x="-930" y="490"/>
                            <mxPoint x="-870" y="-150"/>
                        </Array>
                    </mxGeometry>
                </mxCell>
            </root>
        </mxGraphModel>
    </diagram>
    <diagram id="8YKHPiPmAO6XSmLLmHeY" name="Page-2">
        <mxGraphModel dx="619" dy="436" grid="1" gridSize="10" guides="1" tooltips="1" connect="1" arrows="1" fold="1" page="1" pageScale="1" pageWidth="850" pageHeight="1100" math="0" shadow="0">
            <root>
                <mxCell id="26CnLygqllU6_viyCMD1-0"/>
                <mxCell id="26CnLygqllU6_viyCMD1-1" parent="26CnLygqllU6_viyCMD1-0"/>
            </root>
        </mxGraphModel>
    </diagram>
</mxfile>